<svg data-name="Слой 1" xmlns="http://www.w3.org/2000/svg" viewBox="0 0 98.846 22.009"><defs><clipPath id="a" transform="translate(0 -.076)"><path fill="none" d="M0 0h107v22H0z"/></clipPath></defs><g clip-path="url(#a)" fill="#161619"><path d="M98.846 10.967c0 .085 0 .594-.083 1.699H82.62a4.824 4.824 0 0 0 2.08 3.142 6.765 6.765 0 0 0 3.994 1.19 7.766 7.766 0 0 0 2.912-.51 8.259 8.259 0 0 0 2.413-1.529l3.245 3.568c-1.997 2.293-4.909 3.482-8.736 3.482a13.65 13.65 0 0 1-6.324-1.444 10.06 10.06 0 0 1-4.243-3.907 10.95 10.95 0 0 1-1.498-5.691 10.436 10.436 0 0 1 1.498-5.606 10.134 10.134 0 0 1 4.077-3.908A12.102 12.102 0 0 1 87.863.01a11.405 11.405 0 0 1 5.658 1.36 10.889 10.889 0 0 1 3.994 3.822 12.55 12.55 0 0 1 1.331 5.776zM87.78 4.597a5.29 5.29 0 0 0-3.495 1.188 5.325 5.325 0 0 0-1.747 3.228h10.484a5.325 5.325 0 0 0-1.748-3.228 5.29 5.29 0 0 0-3.494-1.189zM38.69 10.967c0 .085 0 .594-.083 1.699H22.548a4.824 4.824 0 0 0 2.08 3.142 6.765 6.765 0 0 0 3.994 1.19 7.766 7.766 0 0 0 2.912-.51 8.258 8.258 0 0 0 2.413-1.529l3.245 3.568c-1.997 2.293-4.909 3.482-8.736 3.482a13.65 13.65 0 0 1-6.324-1.444 10.06 10.06 0 0 1-4.243-3.907 10.95 10.95 0 0 1-1.498-5.691A10.436 10.436 0 0 1 17.89 5.36a10.726 10.726 0 0 1 4.077-3.908A12.102 12.102 0 0 1 27.79.01a11.14 11.14 0 0 1 5.492 1.274 10.889 10.889 0 0 1 3.993 3.823 11.309 11.309 0 0 1 1.415 5.86zm-10.983-6.37a5.29 5.29 0 0 0-3.495 1.188 5.325 5.325 0 0 0-1.747 3.228h10.484A4.94 4.94 0 0 0 31.2 5.785a5.62 5.62 0 0 0-3.494-1.189z"/><path d="M68.06 21.924a20.974 20.974 0 0 1-5.158-.68 15.137 15.137 0 0 1-3.994-1.613l2.08-4.417a14.332 14.332 0 0 0 3.412 1.529 12.866 12.866 0 0 0 3.91.594c2.58 0 3.91-.68 3.91-1.953 0-.595-.332-1.02-1.08-1.274a16.39 16.39 0 0 0-3.246-.68 31.465 31.465 0 0 1-4.326-.934 6.503 6.503 0 0 1-2.912-1.784 5.176 5.176 0 0 1-1.248-3.738 5.896 5.896 0 0 1 1.164-3.567A7.657 7.657 0 0 1 63.984.944a14.177 14.177 0 0 1 5.241-.85 20.25 20.25 0 0 1 4.494.51 8.915 8.915 0 0 1 3.66 1.189L75.3 6.21a12.574 12.574 0 0 0-6.157-1.614 5.686 5.686 0 0 0-2.995.595 1.607 1.607 0 0 0-.999 1.444 1.339 1.339 0 0 0 1.082 1.359 21.746 21.746 0 0 0 3.411.764 27.544 27.544 0 0 1 4.244.935 6.985 6.985 0 0 1 2.912 1.783 5.096 5.096 0 0 1 1.248 3.653 6.084 6.084 0 0 1-1.165 3.567 6.831 6.831 0 0 1-3.494 2.379 16.713 16.713 0 0 1-5.325.85z"/><path d="M51.17.01a8.6 8.6 0 0 1 6.407 2.208c1.58 1.614 2.413 3.992 2.413 7.22v12.401h-6.157V10.287a5.636 5.636 0 0 0-1.082-3.822A4.032 4.032 0 0 0 49.59 5.19a5.026 5.026 0 0 0-3.744 1.444 6.36 6.36 0 0 0-1.414 4.417v10.702h-6.157V.094h5.824v2.548C45.928.604 48.508.01 51.17.01zM19.303 16.913v4.841H0v-3.822L11.232 4.936H.084V.094h19.054v3.738L7.904 16.912z"/></g></svg>