<svg width="18" height="18" viewBox="0 0 18 18" fill="none" xmlns="http://www.w3.org/2000/svg">
<path d="M17.9745 14.1891C18.0126 14.4813 17.9237 14.7354 17.7077 14.9513L15.1798 17.4665C15.0655 17.5935 14.9131 17.6951 14.7352 17.784C14.5574 17.873 14.3668 17.9238 14.189 17.9492C14.1763 17.9492 14.1382 17.9492 14.0747 17.9619C14.0112 17.9746 13.9349 17.9746 13.8333 17.9746C13.592 17.9746 13.1982 17.9365 12.6647 17.8476C12.1311 17.7713 11.4706 17.5681 10.683 17.2378C9.90813 16.9203 9.01893 16.4248 8.0281 15.777C7.03727 15.1291 5.98293 14.2399 4.86508 13.1094C3.97588 12.2329 3.23911 11.3945 2.65478 10.5942C2.07044 9.80663 1.60044 9.06987 1.24476 8.38391C0.889075 7.71066 0.622314 7.08821 0.444473 6.54199C0.266633 5.99577 0.152307 5.51306 0.0887925 5.11927C0.025278 4.72548 -0.000127755 4.4079 0.0125751 4.17925C0.025278 3.9506 0.025278 3.82357 0.025278 3.79816C0.0506838 3.62032 0.101495 3.44248 0.190416 3.25194C0.279336 3.0741 0.380959 2.92167 0.507988 2.80734L3.04857 0.266761C3.22641 0.0889202 3.42965 0 3.65831 0C3.82344 0 3.96317 0.0508116 4.0902 0.139732C4.21723 0.228652 4.31886 0.355681 4.40778 0.495413L6.44024 4.35709C6.55456 4.56034 6.57997 4.77629 6.52916 5.01764C6.47835 5.259 6.37672 5.46224 6.21159 5.62738L5.28428 6.55469C5.25887 6.5801 5.23346 6.61821 5.22076 6.68172C5.20806 6.73253 5.19536 6.78334 5.19536 6.82145C5.24617 7.08821 5.36049 7.39308 5.53833 7.73606C5.69077 8.04093 5.91942 8.40931 6.23699 8.85392C6.55456 9.28581 6.99917 9.79393 7.5835 10.3656C8.15513 10.9499 8.66325 11.4072 9.10785 11.7248C9.55245 12.0423 9.92083 12.2837 10.2257 12.4361C10.5179 12.5886 10.7465 12.6775 10.9117 12.7156L11.153 12.7664C11.1784 12.7664 11.2165 12.7537 11.28 12.741C11.3309 12.7283 11.3817 12.7029 11.4071 12.6775L12.4868 11.5723C12.7155 11.3691 12.9822 11.2675 13.2871 11.2675C13.503 11.2675 13.6682 11.3056 13.7952 11.3818H13.8206L17.4918 13.554C17.7712 13.7191 17.9237 13.9351 17.9745 14.1891Z" fill="white"/>
</svg>
